<svg width="47" height="47" viewBox="0 0 47 47" fill="none" xmlns="http://www.w3.org/2000/svg">
<path d="M23.4883 0.783203C21.2264 0.783203 19.7312 2.41461 18.8823 3.88016C18.0186 5.36682 17.5604 7.10678 17.4987 8.22856C17.3783 10.4601 17.7043 12.4141 18.7882 13.8254C19.9163 15.297 21.6083 15.8609 23.4883 15.8609C25.3947 15.8609 27.0808 15.2306 28.2029 13.759C29.2869 12.3357 29.6364 10.3967 29.4954 8.21348C29.4279 7.15201 28.9638 5.4211 28.1031 3.92841C27.26 2.46587 25.7619 0.783203 23.4883 0.783203ZM20.4333 8.39441C20.4626 7.78226 20.774 6.51272 21.4056 5.42109C22.0518 4.31138 22.7715 3.79874 23.4912 3.79874C24.1932 3.79874 24.9159 4.31741 25.5768 5.4603C26.2142 6.57604 26.5315 7.85161 26.5667 8.40949C26.6813 10.2188 26.3494 11.2984 25.8911 11.9015C25.4711 12.4503 24.7602 12.8453 23.4883 12.8453C22.1664 12.8453 21.4849 12.4684 21.0971 11.9588C20.6565 11.3858 20.3275 10.3183 20.4303 8.39441H20.4333ZM8.8125 18.9005C7.25435 18.9005 5.76002 19.5359 4.65825 20.667C3.55647 21.798 2.9375 23.3321 2.9375 24.9316V43.0248H1.46875C1.07921 43.0248 0.705631 43.1837 0.430187 43.4664C0.154743 43.7492 0 44.1327 0 44.5326C0 44.9325 0.154743 45.316 0.430187 45.5987C0.705631 45.8815 1.07921 46.0403 1.46875 46.0403H45.5312C45.9208 46.0403 46.2944 45.8815 46.5698 45.5987C46.8453 45.316 47 44.9325 47 44.5326C47 44.1327 46.8453 43.7492 46.5698 43.4664C46.2944 43.1837 45.9208 43.0248 45.5312 43.0248H44.0625V24.9316C44.0625 23.3321 43.4435 21.798 42.3418 20.667C41.24 19.5359 39.7456 18.9005 38.1875 18.9005H8.8125ZM41.125 43.0248H5.875V31.3185L10.4134 35.4799C10.9896 36.0089 11.6618 36.416 12.3915 36.6778C13.1212 36.9396 13.8941 37.051 14.6658 37.0056C15.4376 36.9602 16.193 36.7589 16.8888 36.4133C17.5846 36.0677 18.2071 35.5845 18.7207 34.9914L21.3057 32.006C21.5813 31.6877 21.9195 31.4328 22.2979 31.2583C22.6764 31.0838 23.0866 30.9936 23.5015 30.9936C23.9164 30.9936 24.3265 31.0838 24.705 31.2583C25.0835 31.4328 25.4217 31.6877 25.6973 32.006L28.2793 34.9914C28.7927 35.5851 29.4153 36.069 30.1112 36.4151C30.8072 36.7613 31.5629 36.963 32.335 37.0087C33.1071 37.0543 33.8803 36.9431 34.6104 36.6813C35.3405 36.4194 36.0131 36.0122 36.5895 35.483L41.125 31.3185V43.0248ZM41.125 27.2717L34.6302 33.2334C34.3421 33.4979 34.006 33.7014 33.6411 33.8323C33.2763 33.9632 32.8899 34.0189 32.504 33.9962C32.1181 33.9735 31.7404 33.8729 31.3925 33.7001C31.0446 33.5272 30.7333 33.2856 30.4766 32.9891L27.8916 30.0037C27.3404 29.367 26.664 28.8573 25.9071 28.5083C25.1502 28.1593 24.3298 27.9789 23.5 27.9789C22.6702 27.9789 21.8498 28.1593 21.0929 28.5083C20.336 28.8573 19.6596 29.367 19.1084 30.0037L16.5234 32.9891C16.2667 33.2856 15.9554 33.5272 15.6075 33.7001C15.2596 33.8729 14.8819 33.9735 14.496 33.9962C14.1101 34.0189 13.7237 33.9632 13.3589 33.8323C12.994 33.7014 12.6579 33.4979 12.3698 33.2334L5.875 27.2717V24.9316C5.875 24.1318 6.18449 23.3648 6.73537 22.7993C7.28626 22.2338 8.03343 21.9161 8.8125 21.9161H38.1875C38.9666 21.9161 39.7137 22.2338 40.2646 22.7993C40.8155 23.3648 41.125 24.1318 41.125 24.9316V27.2717Z" fill="black"/>
</svg>
