<svg width="43" height="45" viewBox="0 0 43 45" fill="none" xmlns="http://www.w3.org/2000/svg">
<path d="M41.7353 18.4372H39.579C39.2444 13.6506 37.1943 9.17402 33.8407 5.90667C30.4871 2.63932 26.0784 0.823242 21.5 0.823242C16.9216 0.823242 12.5129 2.63932 9.15926 5.90667C5.80565 9.17402 3.75565 13.6506 3.42103 18.4372H1.26471C0.929285 18.4372 0.607602 18.5769 0.370424 18.8255C0.133245 19.0742 0 19.4114 0 19.763C0.00752105 23.9314 1.11389 28.0166 3.19693 31.5673C5.27996 35.1181 8.25861 37.9962 11.8039 39.8839V40.9755C11.8039 41.7959 12.1148 42.5828 12.6682 43.1629C13.2217 43.743 13.9723 44.069 14.7549 44.069H28.2451C29.0277 44.069 29.7783 43.743 30.3318 43.1629C30.8852 42.5828 31.1961 41.7959 31.1961 40.9755V39.8839C34.7414 37.9962 37.72 35.1181 39.8031 31.5673C41.8861 28.0166 42.9925 23.9314 43 19.763C43 19.4114 42.8668 19.0742 42.6296 18.8255C42.3924 18.5769 42.0707 18.4372 41.7353 18.4372ZM31.2467 7.01121C31.8587 7.52502 32.4329 8.08638 32.9646 8.69053C30.617 9.45654 28.4428 10.7158 26.5746 12.3915C24.7065 14.0672 23.1835 16.1243 22.0986 18.4372H15.0374C16.0334 15.1117 18.0141 12.2052 20.6921 10.1392C23.3702 8.07321 26.6063 6.95514 29.9314 6.94713C30.3698 6.94713 30.8103 6.97144 31.2467 7.01121ZM34.6319 10.9554C36.0107 13.2033 36.839 15.7733 37.0432 18.4372H24.9737C26.0311 16.5821 27.4293 14.9656 29.0872 13.6813C30.7452 12.3969 32.6298 11.4704 34.6319 10.9554ZM21.5 3.41172C23.4322 3.40842 25.348 3.7831 27.149 4.51654C23.6701 5.09222 20.4254 6.71396 17.8085 9.18499C15.1917 11.656 13.3152 14.8701 12.4068 18.4372H5.95676C6.27865 14.3459 8.05506 10.5307 10.9339 7.74778C13.8128 4.96482 17.5839 3.41722 21.5 3.41172ZM29.4044 37.8466C29.1841 37.9525 28.9974 38.1225 28.8666 38.3364C28.7358 38.5503 28.6664 38.799 28.6667 39.0531V40.9755C28.6667 41.0927 28.6223 41.2051 28.5432 41.288C28.4641 41.3708 28.3569 41.4174 28.2451 41.4174H14.7549C14.6431 41.4174 14.5359 41.3708 14.4568 41.288C14.3777 41.2051 14.3333 41.0927 14.3333 40.9755V39.0531C14.3336 38.799 14.2641 38.5503 14.1334 38.3364C14.0026 38.1225 13.8159 37.9525 13.5956 37.8466C10.4931 36.3468 7.83263 33.9996 5.89306 31.0513C3.95349 28.1029 2.80624 24.6618 2.57157 21.0888H40.4284C40.1938 24.6618 39.0465 28.1029 37.1069 31.0513C35.1674 33.9996 32.5069 36.3468 29.4044 37.8466Z" fill="black"/>
</svg>
