<svg width="23" height="55" viewBox="0 0 23 55" fill="none" xmlns="http://www.w3.org/2000/svg">
<path d="M1 29.4168H22M22 43.4968H1M16.2727 15.3368V3.26826C16.2727 2.7348 16.0716 2.22319 15.7136 1.84597C15.3555 1.46875 14.87 1.25684 14.3636 1.25684H8.63636C8.13004 1.25684 7.64446 1.46875 7.28643 1.84597C6.92841 2.22319 6.72727 2.7348 6.72727 3.26826V15.3368C4.96496 16.5711 3.51978 18.2454 2.5205 20.2107C1.52122 22.176 0.998877 24.3713 1 26.6008V49.5311C1 50.5981 1.40227 51.6213 2.11832 52.3757C2.83437 53.1301 3.80554 53.554 4.81818 53.554H18.1818C19.1945 53.554 20.1656 53.1301 20.8817 52.3757C21.5977 51.6213 22 50.5981 22 49.5311V26.6008C22.0011 24.3713 21.4788 22.176 20.4795 20.2107C19.4802 18.2454 18.035 16.5711 16.2727 15.3368Z" stroke="black" stroke-linecap="round" stroke-linejoin="round"/>
</svg>
